<svg width="20" height="21" viewBox="0 0 20 21" fill="none" xmlns="http://www.w3.org/2000/svg">
<path d="M19.2849 1.92856H11.4277" stroke="white" stroke-linecap="round" stroke-linejoin="round"/>
<path d="M19.2849 6.21426H11.4277" stroke="white" stroke-linecap="round" stroke-linejoin="round"/>
<path d="M19.2849 10.5H11.4277" stroke="white" stroke-linecap="round" stroke-linejoin="round"/>
<path d="M19.2849 19.0714H11.4277" stroke="white" stroke-linecap="round" stroke-linejoin="round"/>
<path d="M19.2849 14.7857H11.4277" stroke="white" stroke-linecap="round" stroke-linejoin="round"/>
<path d="M0.713867 2.64284V8.35713C0.713867 8.75162 1.03366 9.07142 1.42815 9.07142H7.14244C7.53692 9.07142 7.85672 8.75162 7.85672 8.35713V2.64284C7.85672 2.24836 7.53692 1.92856 7.14244 1.92856H1.42815C1.03366 1.92856 0.713867 2.24836 0.713867 2.64284Z" stroke="white" stroke-linecap="round" stroke-linejoin="round"/>
<path d="M0.713867 12.6428V18.3571C0.713867 18.7516 1.03366 19.0714 1.42815 19.0714H7.14244C7.53692 19.0714 7.85672 18.7516 7.85672 18.3571V12.6428C7.85672 12.2484 7.53692 11.9286 7.14244 11.9286H1.42815C1.03366 11.9286 0.713867 12.2484 0.713867 12.6428Z" stroke="white" stroke-linecap="round" stroke-linejoin="round"/>
</svg>
