<svg
		width="20"
		height="21"
		viewBox="0 0 20 21"
		fill="none"
		xmlns="http://www.w3.org/2000/svg"
	>
		<path
			d="M19.2857 1.92857H11.4286"
			stroke='black'
			stroke-linecap="round"
			stroke-linejoin="round"
		/>
		<path
			d="M19.2857 6.21429H11.4286"
			stroke='black'
			stroke-linecap="round"
			stroke-linejoin="round"
		/>
		<path
			d="M19.2857 10.5H11.4286"
			stroke='black'
			stroke-linecap="round"
			stroke-linejoin="round"
		/>
		<path
			d="M19.2857 19.0714H11.4286"
			stroke='black'
			stroke-linecap="round"
			stroke-linejoin="round"
		/>
		<path
			d="M19.2857 14.7857H11.4286"
			stroke='black'
			stroke-linecap="round"
			stroke-linejoin="round"
		/>
		<path
			d="M0.714279 2.64286V8.35714C0.714279 8.75163 1.03408 9.07143 1.42856 9.07143H7.14285C7.53734 9.07143 7.85714 8.75163 7.85714 8.35714V2.64286C7.85714 2.24837 7.53734 1.92857 7.14285 1.92857H1.42856C1.03408 1.92857 0.714279 2.24837 0.714279 2.64286Z"
			stroke='black'
			stroke-linecap="round"
			stroke-linejoin="round"
		/>
		<path
			d="M0.714279 12.6429V18.3571C0.714279 18.7516 1.03408 19.0714 1.42856 19.0714H7.14285C7.53734 19.0714 7.85714 18.7516 7.85714 18.3571V12.6429C7.85714 12.2484 7.53734 11.9286 7.14285 11.9286H1.42856C1.03408 11.9286 0.714279 12.2484 0.714279 12.6429Z"
			stroke='black'
			stroke-linecap="round"
			stroke-linejoin="round"
		/>
	</svg>