<svg width="20" height="21" viewBox="0 0 20 21" fill="none" xmlns="http://www.w3.org/2000/svg">
<g clip-path="url(#clip0_899_25)">
<path d="M8.78571 1.25714C8.69934 1.20555 8.60061 1.1783 8.5 1.1783C8.39939 1.1783 8.30066 1.20555 8.21429 1.25714C8.14304 1.31359 8.09497 1.39421 8.07917 1.48372C8.06338 1.57323 8.08095 1.66543 8.12857 1.74286C9.88571 4.78571 10.2571 8.92857 7.85714 11.2143C6.93375 10.4383 6.20067 9.46087 5.71429 8.35714C4.82676 8.85007 4.09122 9.57671 3.58752 10.4582C3.08383 11.3396 2.83123 12.3422 2.85714 13.3571C2.89337 14.2518 3.10819 15.1302 3.48896 15.9407C3.86973 16.7511 4.40875 17.4772 5.07431 18.0762C5.73987 18.6752 6.51852 19.135 7.36444 19.4286C8.21036 19.7222 9.10645 19.8436 10 19.7857C14.6 19.7857 16.9857 16.9286 17.1429 13.3571C17.3286 9.07143 14.2857 3.8 8.78571 1.25714Z" stroke="#000001" stroke-linecap="round" stroke-linejoin="round"/>
<path d="M13.5714 13.3571C13.5714 14.1149 13.2704 14.8416 12.7346 15.3774C12.1988 15.9133 11.472 16.2143 10.7143 16.2143" stroke="#000001" stroke-linecap="round" stroke-linejoin="round"/>
</g>
<defs>
<clipPath id="clip0_899_25">
<rect width="20" height="20" fill="white" transform="translate(0 0.5)"/>
</clipPath>
</defs>
</svg>
