<svg width="20" height="21" viewBox="0 0 20 21" fill="none" xmlns="http://www.w3.org/2000/svg">
<g clip-path="url(#clip0_899_41)">
<path d="M7.47149 3.71428L8.08577 2.12857C8.18937 1.86009 8.37164 1.62916 8.6087 1.46602C8.84577 1.30288 9.12657 1.21513 9.41434 1.21428H10.5858C10.8735 1.21513 11.1544 1.30288 11.3914 1.46602C11.6285 1.62916 11.8107 1.86009 11.9143 2.12857L12.5286 3.71428L14.6143 4.91428L16.3 4.65714C16.5807 4.61904 16.8664 4.66524 17.1209 4.78988C17.3751 4.91453 17.5867 5.11197 17.7286 5.35714L18.3 6.35714C18.4464 6.60621 18.514 6.89383 18.4936 7.18203C18.4731 7.47023 18.3659 7.74547 18.1857 7.97143L17.1429 9.3V11.7L18.2143 13.0286C18.3944 13.2545 18.5017 13.5298 18.5221 13.818C18.5426 14.1062 18.475 14.3938 18.3286 14.6429L17.7571 15.6429C17.6153 15.888 17.4037 16.0854 17.1494 16.2101C16.895 16.3347 16.6093 16.381 16.3286 16.3429L14.6429 16.0857L12.5572 17.2857L11.9429 18.8714C11.8393 19.1399 11.6571 19.3709 11.42 19.534C11.1829 19.6971 10.9021 19.7849 10.6143 19.7857H9.41434C9.12657 19.7849 8.84577 19.6971 8.6087 19.534C8.37164 19.3709 8.18937 19.1399 8.08577 18.8714L7.47149 17.2857L5.38577 16.0857L3.70006 16.3429C3.41937 16.381 3.13369 16.3347 2.87931 16.2101C2.62496 16.0854 2.41339 15.888 2.27149 15.6429L1.70006 14.6429C1.55363 14.3938 1.48617 14.1062 1.50657 13.818C1.52697 13.5298 1.63429 13.2545 1.81434 13.0286L2.8572 11.7V9.3L1.78577 7.97143C1.60571 7.74547 1.4984 7.47023 1.478 7.18203C1.4576 6.89383 1.52506 6.60621 1.67149 6.35714L2.24291 5.35714C2.38481 5.11197 2.59639 4.91453 2.85074 4.78988C3.10511 4.66524 3.3908 4.61904 3.67149 4.65714L5.3572 4.91428L7.47149 3.71428ZM7.14291 10.5C7.14291 11.0651 7.31049 11.6175 7.62443 12.0873C7.93839 12.5572 8.3846 12.9234 8.90667 13.1397C9.42876 13.3559 10.0032 13.4125 10.5575 13.3022C11.1117 13.192 11.6208 12.9199 12.0204 12.5203C12.4199 12.1207 12.6921 11.6116 12.8023 11.0574C12.9125 10.5032 12.856 9.9287 12.6397 9.40661C12.4235 8.88454 12.0573 8.43831 11.5874 8.12437C11.1175 7.81043 10.5651 7.64286 10.0001 7.64286C9.2423 7.64286 8.51557 7.94387 7.97976 8.4797C7.44394 9.01551 7.14291 9.74224 7.14291 10.5Z" stroke="white" stroke-linecap="round" stroke-linejoin="round"/>
</g>
<defs>
<clipPath id="clip0_899_41">
<rect width="20" height="20" fill="white" transform="translate(0 0.5)"/>
</clipPath>
</defs>
</svg>
