<svg width="17" height="18" viewBox="0 0 17 18" fill="none" xmlns="http://www.w3.org/2000/svg">
<circle cx="8.5" cy="9" r="8.5" fill="white" fill-opacity="0.1"/>
<g clip-path="url(#clip0_1471_2354)">
<path d="M7.57144 8.14284C8.55766 8.14284 9.35715 7.34335 9.35715 6.35713C9.35715 5.3709 8.55766 4.57141 7.57144 4.57141C6.58521 4.57141 5.78572 5.3709 5.78572 6.35713C5.78572 7.34335 6.58521 8.14284 7.57144 8.14284Z" stroke="white" stroke-linecap="round" stroke-linejoin="round"/>
<path d="M4.35715 13.1428H7.57143H10.7857V12.7556C10.78 12.2112 10.6364 11.677 10.3684 11.2032C10.1003 10.7292 9.7165 10.331 9.25281 10.0457C8.78911 9.76032 8.26065 9.59715 7.7168 9.5714C7.66832 9.56911 7.61985 9.56791 7.57143 9.56781C7.52302 9.56791 7.47455 9.56911 7.42606 9.5714C6.88221 9.59715 6.35375 9.76032 5.89005 10.0457C5.42636 10.331 5.04255 10.7292 4.77448 11.2032C4.50642 11.677 4.36283 12.2112 4.35715 12.7556V13.1428Z" stroke="white" stroke-linecap="round" stroke-linejoin="round"/>
<path d="M10.4286 8.14284C11.4148 8.14284 12.2143 7.34335 12.2143 6.35713C12.2143 5.3709 11.4148 4.57141 10.4286 4.57141" stroke="white" stroke-linecap="round" stroke-linejoin="round"/>
<path d="M12.2143 13.1429H13.6429V12.7556C13.6372 12.2112 13.4936 11.677 13.2255 11.2032C12.9574 10.7292 12.5737 10.331 12.1099 10.0457C11.8102 9.86123 11.4834 9.72783 11.1429 9.6496" stroke="white" stroke-linecap="round" stroke-linejoin="round"/>
</g>
<defs>
<clipPath id="clip0_1471_2354">
<rect width="10" height="10" fill="white" transform="translate(4 3.5)"/>
</clipPath>
</defs>
</svg>
