<svg width="15" height="14" viewBox="0 0 15 14" fill="none" xmlns="http://www.w3.org/2000/svg">
<g clip-path="url(#clip0_480_3522)">
<path d="M5.5 6C6.74264 6 7.75 4.99264 7.75 3.75C7.75 2.50736 6.74264 1.5 5.5 1.5C4.25736 1.5 3.25 2.50736 3.25 3.75C3.25 4.99264 4.25736 6 5.5 6Z" stroke="white" stroke-linecap="round" stroke-linejoin="round"/>
<path d="M10 13.5H1V12.5C1 11.3065 1.47411 10.1619 2.31802 9.31802C3.16193 8.47411 4.30653 8 5.5 8C6.69347 8 7.83807 8.47411 8.68198 9.31802C9.52589 10.1619 10 11.3065 10 12.5V13.5Z" stroke="white" stroke-linecap="round" stroke-linejoin="round"/>
<path d="M9.5 1.5C10.0967 1.5 10.669 1.73705 11.091 2.15901C11.5129 2.58097 11.75 3.15326 11.75 3.75C11.75 4.34674 11.5129 4.91903 11.091 5.34099C10.669 5.76295 10.0967 6 9.5 6" stroke="white" stroke-linecap="round" stroke-linejoin="round"/>
<path d="M11.1 8.18994C11.9518 8.51399 12.6852 9.08905 13.203 9.83903C13.7209 10.589 13.9988 11.4786 14 12.3899V13.4999H12.5" stroke="white" stroke-linecap="round" stroke-linejoin="round"/>
</g>
<defs>
<clipPath id="clip0_480_3522">
<rect width="14" height="14" fill="white" transform="translate(0.5)"/>
</clipPath>
</defs>
</svg>
