<svg width="19" height="19" viewBox="0 0 19 19" fill="none" xmlns="http://www.w3.org/2000/svg">
<path d="M10.1289 17.4495C10.8078 17.8867 11.6159 18.0783 12.4188 17.9925C13.2217 17.9067 13.9711 17.5488 14.5424 16.9781L15.04 16.4804C15.2607 16.2572 15.3846 15.9562 15.3846 15.6422C15.3846 15.3284 15.2607 15.0272 15.04 14.8041L12.9446 12.7218C12.7237 12.5018 12.4247 12.3784 12.113 12.3784C11.8013 12.3784 11.5023 12.5018 11.2814 12.7218C11.0582 12.9425 10.757 13.0663 10.4432 13.0663C10.1293 13.0663 9.82815 12.9425 9.60503 12.7218L6.26546 9.38219C6.04472 9.15907 5.9209 8.85788 5.9209 8.54402C5.9209 8.23017 6.04472 7.92898 6.26546 7.70585C6.48538 7.48496 6.60886 7.18594 6.60886 6.87424C6.60886 6.56253 6.48538 6.26351 6.26546 6.04262L4.24867 3.9472C4.02551 3.72646 3.72429 3.60266 3.4105 3.60266C3.09658 3.60266 2.79537 3.72646 2.57234 3.9472L2.07468 4.44486C1.49372 5.00806 1.12349 5.75345 1.02579 6.55665C0.927959 7.35985 1.10869 8.17228 1.53773 8.85833C3.82134 12.2487 6.73852 15.1659 10.1289 17.4495Z" stroke="black" stroke-linecap="round" stroke-linejoin="round"/>
<path d="M9.48736 0.987549C10.6052 0.987549 11.7122 1.20773 12.745 1.63553C13.7778 2.06334 14.7162 2.69038 15.5067 3.48085C16.2972 4.27132 16.9242 5.20974 17.352 6.24254C17.7798 7.27533 18 8.38229 18 9.50018" stroke="black" stroke-linecap="round" stroke-linejoin="round"/>
<path d="M9.48736 4.2616C10.8767 4.2616 12.2091 4.81352 13.1916 5.79593C14.174 6.77835 14.7259 8.11079 14.7259 9.50014" stroke="black" stroke-linecap="round" stroke-linejoin="round"/>
</svg>
