<svg width="14" height="15" viewBox="0 0 14 15" fill="none" xmlns="http://www.w3.org/2000/svg">
<path d="M2.33333 8.08335C2.6555 8.08335 2.91667 7.82219 2.91667 7.50002C2.91667 7.17785 2.6555 6.91669 2.33333 6.91669C2.01117 6.91669 1.75 7.17785 1.75 7.50002C1.75 7.82219 2.01117 8.08335 2.33333 8.08335Z" fill="white"/>
<path d="M11.7017 6.91669H4.63167C4.32883 6.91669 4.08334 7.16218 4.08334 7.46502V7.53502C4.08334 7.83786 4.32883 8.08335 4.63167 8.08335H11.7017C12.0045 8.08335 12.25 7.83786 12.25 7.53502V7.46502C12.25 7.16218 12.0045 6.91669 11.7017 6.91669Z" fill="white"/>
<path d="M11.7017 9.83331H2.29833C1.9955 9.83331 1.75 10.0788 1.75 10.3816V10.4516C1.75 10.7545 1.9955 11 2.29833 11H11.7017C12.0045 11 12.25 10.7545 12.25 10.4516V10.3816C12.25 10.0788 12.0045 9.83331 11.7017 9.83331Z" fill="white"/>
<path d="M11.7017 4H2.29833C1.9955 4 1.75 4.2455 1.75 4.54833V4.61833C1.75 4.92117 1.9955 5.16667 2.29833 5.16667H11.7017C12.0045 5.16667 12.25 4.92117 12.25 4.61833V4.54833C12.25 4.2455 12.0045 4 11.7017 4Z" fill="white"/>
</svg>
