<svg width="18" height="18" viewBox="0 0 18 18" fill="none" xmlns="http://www.w3.org/2000/svg">
<path d="M5.78571 14.1424V7.71387" stroke="white" stroke-linecap="round" stroke-linejoin="round"/>
<path d="M5.78572 7.71408C6.85084 7.71408 7.71429 6.85063 7.71429 5.7855C7.71429 4.72038 6.85084 3.85693 5.78572 3.85693C4.72059 3.85693 3.85715 4.72038 3.85715 5.7855C3.85715 6.85063 4.72059 7.71408 5.78572 7.71408Z" stroke="white" stroke-linecap="round" stroke-linejoin="round"/>
<path d="M12.2143 3.85693V7.71408" stroke="white" stroke-linecap="round" stroke-linejoin="round"/>
<path d="M12.2143 11.5713V14.1427" stroke="white" stroke-linecap="round" stroke-linejoin="round"/>
<path d="M12.2143 11.571C13.2794 11.571 14.1428 10.7076 14.1428 9.64244C14.1428 8.57731 13.2794 7.71387 12.2143 7.71387C11.1492 7.71387 10.2857 8.57731 10.2857 9.64244C10.2857 10.7076 11.1492 11.571 12.2143 11.571Z" stroke="white" stroke-linecap="round" stroke-linejoin="round"/>
</svg>
