<svg width="36" height="33" viewBox="0 0 36 33" fill="none" xmlns="http://www.w3.org/2000/svg">
<g clip-path="url(#clip0_667_2662)">
<path d="M1.28564 3.53561V29.4642C1.28564 30.766 2.43691 31.8213 3.85707 31.8213H32.1428C33.563 31.8213 34.7142 30.766 34.7142 29.4642V3.53561C34.7142 2.2338 33.563 1.17847 32.1428 1.17847H3.85707C2.43691 1.17847 1.28564 2.2338 1.28564 3.53561Z" fill="#C0FFB9" stroke="black" stroke-linecap="round" stroke-linejoin="round"/>
<path d="M11.5713 25.9283V14.1426V25.9283Z" fill="#C0FFB9"/>
<path d="M11.5713 25.9283V14.1426" stroke="black" stroke-linecap="round" stroke-linejoin="round"/>
<path d="M11.5713 14.1427C13.7015 14.1427 15.4284 12.5597 15.4284 10.607C15.4284 8.65428 13.7015 7.07129 11.5713 7.07129C9.44101 7.07129 7.71411 8.65428 7.71411 10.607C7.71411 12.5597 9.44101 14.1427 11.5713 14.1427Z" fill="#C0FFB9" stroke="black" stroke-linecap="round" stroke-linejoin="round"/>
<path d="M24.4285 7.07129V14.1427V7.07129Z" fill="#C0FFB9"/>
<path d="M24.4285 7.07129V14.1427" stroke="black" stroke-linecap="round" stroke-linejoin="round"/>
<path d="M24.4285 21.2141V25.9284V21.2141Z" fill="#C0FFB9"/>
<path d="M24.4285 21.2141V25.9284" stroke="black" stroke-linecap="round" stroke-linejoin="round"/>
<path d="M24.4284 21.214C26.5586 21.214 28.2856 19.631 28.2856 17.6783C28.2856 15.7256 26.5586 14.1426 24.4284 14.1426C22.2982 14.1426 20.5713 15.7256 20.5713 17.6783C20.5713 19.631 22.2982 21.214 24.4284 21.214Z" fill="#C0FFB9" stroke="black" stroke-linecap="round" stroke-linejoin="round"/>
</g>
<defs>
<clipPath id="clip0_667_2662">
<rect width="36" height="33" fill="white"/>
</clipPath>
</defs>
</svg>
