<svg width="20" height="20" viewBox="0 0 20 20" fill="none" xmlns="http://www.w3.org/2000/svg">
<path d="M9.99995 19.2858C15.1284 19.2858 19.2857 15.1285 19.2857 10.0001C19.2857 4.87171 15.1284 0.714355 9.99995 0.714355C4.87159 0.714355 0.714233 4.87171 0.714233 10.0001C0.714233 15.1285 4.87159 19.2858 9.99995 19.2858Z" stroke="black" stroke-width="1.5" stroke-linecap="round" stroke-linejoin="round"/>
<path d="M7.85706 14.2856H12.1428" stroke="black" stroke-width="1.5" stroke-linecap="round" stroke-linejoin="round"/>
<path d="M9.99998 14.2856V9.28564H8.57141" stroke="black" stroke-width="1.5" stroke-linecap="round" stroke-linejoin="round"/>
<path d="M9.99997 6.07171C9.80272 6.07171 9.64282 5.91181 9.64282 5.71456C9.64282 5.51732 9.80272 5.35742 9.99997 5.35742" stroke="black" stroke-width="1.5" stroke-linecap="round" stroke-linejoin="round"/>
<path d="M10 6.07171C10.1972 6.07171 10.3571 5.91181 10.3571 5.71456C10.3571 5.51732 10.1972 5.35742 10 5.35742" stroke="black" stroke-width="1.5" stroke-linecap="round" stroke-linejoin="round"/>
</svg>
