<svg width="24" height="24" viewBox="0 0 24 24" fill="none" xmlns="http://www.w3.org/2000/svg">
<path d="M16.5 6H16V5.5V4C16.0006 3.49293 15.8339 3.0529 15.5 2.67988M16.5 6L15.5 2.67988M16.5 6H20C20.55 6 21.021 6.196 21.413 6.588C21.805 6.98 22.0007 7.45067 22 8V19C22 19.55 21.8043 20.021 21.413 20.413C21.0217 20.805 20.5507 21.0007 20 21H4C3.45 21 2.97933 20.8043 2.588 20.413C2.19667 20.0217 2.00067 19.5507 2 19M16.5 6H4M15.5 2.67988C15.4722 2.64879 15.4432 2.61816 15.413 2.588C15.3825 2.55748 15.3515 2.52815 15.32 2.5H15H14C14.3889 2.5 14.7149 2.6244 15 2.88471C15.02 2.90299 15.0398 2.92193 15.0594 2.94155C15.0787 2.96085 15.0974 2.98033 15.1154 3C15.3752 3.28417 15.4995 3.60856 15.5 3.99499V3V2.67988ZM2 19H2.5V18.9997M2 19L2.5 18.9994C2.5 18.9995 2.5 18.9996 2.5 18.9997M2 19V8C2 7.45 2.196 6.97933 2.588 6.588C2.98 6.19667 3.45067 6.00067 4 6M2.5 18.9997C2.50057 19.4171 2.64338 19.7613 2.94155 20.0594C3.23978 20.3577 3.58354 20.5 4 20.5H20H20.0006C20.4174 20.5005 20.7611 20.3583 21.0591 20.0597C21.3576 19.7607 21.5 19.4165 21.5 19V8V7.99939C21.5005 7.58424 21.3585 7.24061 21.0594 6.94155C20.7604 6.64248 20.4162 6.5 20 6.5H16H15.5H15H9H8.5H8L4.00061 6.5L4 6M2.5 18.9997V8C2.5 7.58381 2.64246 7.24014 2.94125 6.94185C3.24045 6.64317 3.58455 6.50059 4.00024 6.5H4V6M8.5 2.68085C8.52815 2.64942 8.55748 2.61847 8.588 2.588C8.61857 2.55748 8.64963 2.52815 8.68116 2.5H9H10V2.0002L10.0006 2.5C10.0005 2.5 10.0004 2.5 10.0003 2.5C9.61154 2.50053 9.28537 2.62527 9 2.88574C8.98022 2.90379 8.96064 2.9225 8.94125 2.94185C8.92203 2.96105 8.90345 2.98043 8.88552 3C8.62471 3.28467 8.5 3.61059 8.5 4V3V2.68085Z" stroke="black"/>
</svg>
