<svg width="100" height="86" viewBox="0 0 100 86" fill="none" xmlns="http://www.w3.org/2000/svg">
<g clip-path="url(#clip0_1021_3830)">
<path d="M41.6572 0.11499C42.1061 0.319326 42.5294 0.549205 42.9526 0.766312C43.2219 0.906793 43.5041 1.0345 43.7734 1.17498C44.1838 1.41763 44.5814 1.67305 44.9918 1.92847C45.2484 2.08173 45.5177 2.23498 45.7742 2.401C46.2616 2.72028 46.7233 3.07787 47.1978 3.43545C47.3517 3.55039 47.5185 3.65256 47.6724 3.78027C48.288 4.26557 48.8908 4.77641 49.4551 5.31279C49.9296 5.74701 50.4042 6.20676 50.8402 6.67929C51.1737 7.02411 51.4815 7.3817 51.7893 7.72651C51.8791 7.84145 51.9689 7.94362 52.0587 8.05856C52.1741 8.19904 52.3023 8.33952 52.4178 8.48H100V0.11499H41.6572ZM85.5202 4.5593C85.392 4.67424 85.2509 4.76364 85.097 4.82749C84.9431 4.89135 84.7764 4.92966 84.6096 4.92966C84.5199 4.92966 84.4429 4.91689 84.3531 4.90412C84.2762 4.89135 84.1992 4.86581 84.1223 4.82749C84.0453 4.80195 83.9684 4.76364 83.8914 4.71255C83.8273 4.66147 83.7632 4.61039 83.699 4.5593C83.6477 4.49545 83.5964 4.43159 83.5451 4.36774C83.4938 4.29111 83.4554 4.21449 83.4297 4.13786C83.3912 4.06123 83.3656 3.98461 83.3527 3.90798C83.3399 3.81858 83.3271 3.74196 83.3271 3.65256C83.3271 3.48654 83.3656 3.32051 83.4297 3.16726C83.4938 3.01401 83.5836 2.87353 83.699 2.74582C84.0582 2.38823 84.6225 2.27329 85.097 2.47763C85.2509 2.54148 85.392 2.63088 85.5202 2.74582C85.6357 2.87353 85.7255 3.01401 85.7896 3.16726C85.8537 3.32051 85.8922 3.48654 85.8922 3.65256C85.8922 3.98461 85.7511 4.31665 85.5202 4.5593ZM90.6504 4.5593C90.5222 4.67424 90.3811 4.76364 90.2272 4.82749C90.0733 4.89135 89.9066 4.92966 89.7398 4.92966C89.65 4.92966 89.5731 4.91689 89.4833 4.90412C89.4064 4.89135 89.3294 4.86581 89.2524 4.82749C89.1755 4.80195 89.0986 4.76364 89.0216 4.71255C88.9575 4.66147 88.8933 4.61039 88.8292 4.5593C88.7779 4.49545 88.7266 4.43159 88.6753 4.36774C88.624 4.29111 88.5855 4.21449 88.5599 4.13786C88.5214 4.06123 88.4958 3.98461 88.4829 3.90798C88.4701 3.81858 88.4573 3.74196 88.4573 3.65256C88.4573 3.48654 88.4958 3.32051 88.5599 3.16726C88.624 3.01401 88.7138 2.87353 88.8292 2.74582C89.1883 2.38823 89.7526 2.27329 90.2272 2.47763C90.3811 2.54148 90.5222 2.63088 90.6504 2.74582C90.7659 2.87353 90.8556 3.01401 90.9198 3.16726C90.9839 3.32051 91.0224 3.48654 91.0224 3.65256C91.0224 3.98461 90.8813 4.31665 90.6504 4.5593ZM95.7806 4.5593C95.5369 4.78918 95.2035 4.92966 94.87 4.92966C94.7802 4.92966 94.7033 4.91689 94.6135 4.90412C94.5365 4.89135 94.4596 4.86581 94.3826 4.82749C94.3057 4.80195 94.2287 4.76364 94.1518 4.71255C94.0877 4.66147 94.0235 4.61039 93.9594 4.5593C93.9081 4.49545 93.8568 4.43159 93.8055 4.36774C93.7542 4.29111 93.7157 4.21449 93.6901 4.13786C93.6516 4.06123 93.6259 3.98461 93.6131 3.90798C93.6003 3.81858 93.5875 3.74196 93.5875 3.65256C93.5875 3.48654 93.6259 3.32051 93.6901 3.16726C93.7542 3.01401 93.844 2.87353 93.9594 2.74582C94.3185 2.38823 94.8828 2.27329 95.3574 2.47763C95.5241 2.54148 95.6524 2.63088 95.7806 2.74582C95.896 2.87353 95.9858 3.01401 96.0499 3.16726C96.1141 3.32051 96.1525 3.48654 96.1525 3.65256C96.1525 3.98461 96.0115 4.31665 95.7806 4.5593Z" fill="white"/>
<path d="M54.9188 12.1963C55.1112 12.5284 55.3293 12.8604 55.5088 13.218C55.7397 13.6522 55.9321 14.112 56.1373 14.5717C56.304 14.9166 56.4707 15.2614 56.6246 15.6062C56.817 16.0915 56.9837 16.5896 57.1505 17.0749C57.2659 17.4069 57.3942 17.7262 57.4968 18.0582C57.7533 18.8756 57.9713 19.7057 58.1509 20.5358C58.215 20.8295 58.2406 21.1233 58.2919 21.417C58.3945 21.9662 58.4971 22.5153 58.5741 23.0645C58.6126 23.4221 58.6254 23.7796 58.651 24.1372C58.7024 24.6225 58.7537 25.1206 58.7665 25.6059C58.7793 25.989 58.7665 26.3594 58.7665 26.7298C58.7665 27.2023 58.7665 27.6876 58.7537 28.1601C58.728 28.5305 58.6767 28.9136 58.6382 29.284C58.5997 29.7565 58.5613 30.2162 58.4971 30.6888C58.4458 31.0591 58.3689 31.4423 58.2919 31.8126C58.215 32.2724 58.138 32.7321 58.0226 33.1791C57.9457 33.5495 57.8302 33.9198 57.7276 34.2902C57.5994 34.7372 57.4839 35.1842 57.3429 35.6311C57.2146 36.0015 57.0735 36.3591 56.9453 36.7167C56.7785 37.1509 56.6246 37.5851 56.4451 38.0193C56.2912 38.3769 56.1116 38.7345 55.9449 39.0793C55.7397 39.5008 55.5473 39.9222 55.3293 40.3309C55.1369 40.6757 54.9317 41.0205 54.7265 41.3526C54.4956 41.7612 54.2647 42.1571 54.0082 42.5403C53.7774 42.8723 53.5465 43.2044 53.3028 43.5236C53.0335 43.9068 52.7642 44.2771 52.4692 44.6475C52.2127 44.9668 51.9433 45.2733 51.6868 45.5798C51.379 45.9374 51.0584 46.2949 50.7378 46.627C50.4428 46.9335 50.1478 47.2145 49.8528 47.5082C49.6476 47.6998 49.4552 47.9169 49.25 48.0957L53.7133 54.9409C54.2776 54.8004 54.8547 54.7621 55.4319 54.7877C55.496 54.7877 55.5601 54.7877 55.6371 54.8004C55.8551 54.8132 56.0731 54.8515 56.304 54.8898C56.4066 54.9154 56.522 54.9409 56.6246 54.9665C56.817 55.0048 56.9966 55.0686 57.1889 55.1325C57.3172 55.1836 57.4583 55.2347 57.5994 55.2985C57.7533 55.3624 57.9072 55.439 58.0483 55.5156C58.215 55.605 58.3689 55.7072 58.51 55.8094C58.6382 55.886 58.7537 55.9626 58.8691 56.052C59.0486 56.1925 59.2154 56.333 59.3693 56.499C59.4591 56.5756 59.536 56.6522 59.6258 56.7289C59.8566 56.9843 60.0747 57.2525 60.2671 57.559L63.1528 61.965H100.013V11.0342H54.2519C54.4956 11.4173 54.688 11.8004 54.9188 12.1963ZM74.5674 24.4693L80.0439 19.0288L83.5452 22.5153L78.0816 27.943C77.8379 28.1856 77.6968 28.5049 77.6968 28.8497C77.6968 29.1946 77.8379 29.5138 78.0816 29.7437L83.5452 35.1714L80.0439 38.6579L74.5674 33.2302C74.3237 32.9748 73.9903 32.8471 73.6696 32.8471C73.349 32.8471 73.0027 32.9748 72.759 33.2302L67.2954 38.6579L63.7812 35.1714L69.2449 29.7437C69.4886 29.5138 69.6296 29.1818 69.6296 28.8497C69.6296 28.5177 69.4886 28.1856 69.2449 27.943L63.7812 22.5153L67.2954 19.0288L72.759 24.4693C73.2592 24.9674 74.0672 24.9674 74.5674 24.4693ZM85.841 57.0481H65.6537C64.9483 57.0481 64.3712 56.4734 64.3712 55.771C64.3712 55.0686 64.9483 54.4939 65.6537 54.4939H85.841C86.5464 54.4939 87.1235 55.0686 87.1235 55.771C87.1235 56.4734 86.5464 57.0481 85.841 57.0481ZM85.6743 47.9552H68.6805C67.9623 47.9552 67.398 47.3933 67.398 46.6781C67.398 45.9629 67.9623 45.401 68.6805 45.401H85.6743C86.3797 45.401 86.9568 45.9757 86.9568 46.6781C86.9568 47.3805 86.3797 47.9552 85.6743 47.9552Z" fill="white"/>
<path d="M45.402 39.7562C45.7611 39.3348 46.0945 38.9006 46.4152 38.4536C46.4921 38.3386 46.5691 38.2237 46.646 38.1088C46.9795 37.6235 47.3001 37.1126 47.5951 36.6018C47.6079 36.589 47.6079 36.5762 47.6208 36.5635C47.9157 36.0143 48.1851 35.4524 48.4416 34.8905C48.4544 34.8905 48.4544 34.8521 48.4672 34.8394C48.4929 34.7755 48.5185 34.7117 48.5442 34.6606C48.7879 34.0987 48.9931 33.524 49.1855 32.9365C49.1983 32.8982 49.2239 32.8471 49.2368 32.796C49.4163 32.2085 49.583 31.5955 49.7113 30.9825C49.7241 30.957 49.7369 30.9314 49.7369 30.8931C50.9041 25.5165 49.8652 19.9995 46.8384 15.3763C46.5691 14.9677 46.2869 14.5718 45.9919 14.1759C45.2865 13.2436 44.4785 12.3496 43.5807 11.5195C43.1062 11.0853 42.6188 10.6766 42.1186 10.2935C41.9776 10.1785 41.8365 10.0764 41.6826 9.96144C41.1567 9.57831 40.6052 9.20795 40.0409 8.8759C40.0281 8.8759 40.0153 8.86313 40.0024 8.85036C39.9255 8.79928 39.8614 8.77373 39.7972 8.73542C39.7844 8.73542 39.7716 8.72265 39.7588 8.72265C38.1171 7.79037 36.36 7.1135 34.5773 6.65375C33.6282 6.4111 32.6791 6.20676 31.7172 6.10459C31.6915 6.10459 31.6659 6.09182 31.6402 6.09182C31.4863 6.07905 31.3324 6.07905 31.1785 6.06628C30.5501 6.0152 29.9216 5.96411 29.2932 5.96411C27.395 5.96411 25.5482 6.21953 23.7526 6.7176C21.957 7.22844 20.2384 7.98193 18.6096 8.9653L17.9811 9.34843C17.8272 9.4506 17.699 9.55277 17.5451 9.65493C17.0834 9.97421 16.6088 10.2935 16.1728 10.6511C15.8521 10.9065 15.5571 11.2002 15.2622 11.4684C15.0185 11.6855 14.762 11.8899 14.5439 12.1197C14.1848 12.4901 13.8514 12.8732 13.5179 13.2691C13.3768 13.4352 13.2101 13.6012 13.069 13.78C13.0434 13.8183 13.0177 13.8566 12.9792 13.8949C12.556 14.4441 12.1584 14.9932 11.7865 15.5807L11.4658 16.0788C11.2734 16.398 11.1324 16.7301 10.9656 17.0494C9.97807 18.9139 9.27267 20.9445 8.88791 23.0517C8.78531 23.6903 8.6827 24.3288 8.6314 24.9674C8.37489 28.0324 8.84943 31.1741 9.97807 34.0476C10.4911 35.3885 11.1452 36.6401 11.9019 37.7895C13.1075 39.6285 14.5696 41.2121 16.2369 42.5531C16.4164 42.7063 16.5704 42.8596 16.7499 43C17.3784 43.4726 18.0325 43.9196 18.725 44.3155C21.0593 45.6947 23.5859 46.5887 26.1894 46.9846C26.3433 47.0102 26.4844 47.0485 26.6255 47.0612C26.9461 47.0995 27.2539 47.1251 27.5618 47.1506C27.8054 47.1762 28.0491 47.2017 28.2928 47.2145C28.6006 47.2273 28.9213 47.2273 29.2291 47.2273C29.4727 47.2273 29.7293 47.24 29.9729 47.2273C30.2166 47.2273 30.4603 47.1889 30.704 47.1762C31.0246 47.1762 31.3324 47.1506 31.6531 47.1123C31.7044 47.0995 31.7429 47.0995 31.7813 47.0868C33.3204 46.908 34.8594 46.5504 36.3344 46.0268C37.8478 45.4904 39.3099 44.7625 40.6694 43.8813C40.7591 43.8302 40.8361 43.7791 40.9259 43.7152C41.2593 43.4981 41.58 43.2555 41.9134 43.0128C41.9263 43.0001 41.9519 42.9873 41.9647 42.9745C42.2212 42.8085 42.388 42.6552 42.5547 42.5275C43.0036 42.1699 43.4268 41.7996 43.8372 41.4164C43.8501 41.4037 43.8629 41.3781 43.8885 41.3654L44.0168 41.2377C44.3887 40.8673 44.7607 40.4842 45.107 40.0755C45.2096 39.9733 45.2993 39.8712 45.3891 39.7562H45.402ZM32.2687 13.2564C32.3969 13.5884 32.4739 13.946 32.4739 14.3036L30.7296 31.8382C30.7296 32.5789 30.1268 33.1791 29.383 33.1791C28.6391 33.1791 28.0363 32.5789 28.0363 31.8382V31.7105L26.369 15.2486V15.1209L26.292 14.3547C26.292 12.6561 27.6772 11.2641 29.383 11.2641C29.6908 11.2641 29.9729 11.3024 30.2679 11.3918C31.1785 11.66 31.9224 12.3624 32.2687 13.2564ZM29.383 44.4815C27.2283 44.4815 25.4712 42.7319 25.4712 40.5736C25.4712 38.4153 27.2283 36.6784 29.383 36.6784C31.5376 36.6784 33.2947 38.428 33.2947 40.5736C33.2947 42.7191 31.5376 44.4815 29.383 44.4815Z" fill="white"/>
<path d="M49.1084 57.4569L51.3401 56.0265L47.2487 49.7432C47.2487 49.7432 47.1333 49.807 47.082 49.8453C46.5177 50.2795 45.9277 50.6754 45.3506 51.0586C45.1838 51.1607 44.953 51.314 44.7478 51.4162C44.3117 51.6844 43.8628 51.9398 43.4268 52.1824L47.5309 58.4658L49.1084 57.4569Z" fill="white"/>
<path d="M58.0994 58.9509C57.9455 58.7083 57.7659 58.5167 57.5735 58.3252C57.5222 58.2741 57.4709 58.2358 57.4196 58.1847C57.2529 58.0442 57.0733 57.9165 56.8938 57.8143C56.8553 57.7888 56.804 57.7505 56.7655 57.7377C56.5347 57.61 56.291 57.5206 56.0473 57.4567C55.9832 57.444 55.9319 57.4312 55.8677 57.4184C55.6625 57.3801 55.4573 57.3546 55.2649 57.3418H55.0341C54.8802 57.3418 54.7391 57.3546 54.5852 57.3801C54.5082 57.3801 54.4313 57.4056 54.3543 57.4184C54.1235 57.4695 53.9054 57.5334 53.6746 57.6355C53.6361 57.6483 53.6105 57.6611 53.572 57.6866C53.4437 57.7249 53.3155 57.8016 53.1487 57.9037L48.5957 60.8283C48.5957 60.8283 48.5059 60.8794 48.4675 60.8921C48.352 60.9688 48.1981 61.0837 48.057 61.2114C47.4158 61.7861 47.0182 62.5524 46.9156 63.3953C46.813 64.2254 47.0053 65.0555 47.4671 65.7451L60.7029 85.9999L71.3224 79.1675L61.3698 63.9444L58.0994 58.9509Z" fill="white"/>
<path d="M43.953 48.913C44.9021 48.3 45.8383 47.6231 46.7361 46.8824C55.0855 39.8967 58.1251 28.722 55.047 18.7734C55.0342 18.7606 55.0342 18.7479 55.0342 18.7479C54.316 16.4619 53.2899 14.2397 51.9176 12.1453C51.5072 11.5195 51.1352 11.0086 50.7761 10.5489C50.2375 9.8337 49.6347 9.13129 48.9806 8.42889C48.583 8.00744 48.1469 7.586 47.7109 7.1901C43.5426 3.28217 38.0789 0.791822 32.3331 0.153271C32.2818 0.153271 32.1792 0.1405 32.0895 0.127729C31.974 0.114958 31.8073 0.114958 31.6919 0.102187C30.1143 -0.0382941 28.5112 -0.0382941 26.908 0.102187C22.8167 0.459775 18.969 1.72411 15.4549 3.88241C15.1855 4.02289 15.006 4.13783 14.8264 4.25277C14.8008 4.27831 14.7623 4.29108 14.7366 4.31662C11.4918 6.3983 8.7728 9.11852 6.66943 12.4007C6.52835 12.6178 6.42574 12.7838 6.33596 12.9626C4.20694 16.4619 2.93722 20.4336 2.60376 24.4948C2.29595 28.5177 2.88592 32.4512 4.3352 36.1675C4.98929 37.8661 5.82295 39.5008 6.83616 41.0333C14.121 52.1568 28.7035 56.3074 40.7595 50.6754L40.8621 50.6115C40.8621 50.6115 41.0031 50.5349 41.0288 50.5222C41.7983 50.1646 42.6063 49.7303 43.4785 49.2067C43.6708 49.0918 43.8247 49.0024 43.953 48.913ZM42.337 45.8607C42.2472 45.9118 42.1703 45.9884 42.0805 46.0395C40.5543 47.0229 38.9126 47.8275 37.2068 48.4277C35.501 49.0407 33.7311 49.4494 31.9484 49.6537C31.1276 49.7431 30.3067 49.7814 29.4859 49.7942H29.332C28.9729 49.7942 28.6009 49.7814 28.2418 49.7559C28.0879 49.7559 27.934 49.7559 27.7801 49.7431C26.5104 49.6537 25.2663 49.4622 24.0351 49.1684C21.7393 48.632 19.5205 47.7508 17.43 46.5248C16.7246 46.1034 16.0705 45.6564 15.4292 45.1839C15.3523 45.1328 15.2753 45.0817 15.1983 45.0306C15.0316 44.9029 14.8905 44.7624 14.7238 44.6219C12.8128 43.1022 11.1327 41.3015 9.76036 39.1943C9.34994 38.5685 8.96518 37.9172 8.61889 37.2531C8.60607 37.2275 8.58042 37.1892 8.56759 37.1509C8.19565 36.4485 7.86219 35.7078 7.58003 34.9671C6.31031 31.7232 5.78447 28.1984 6.06663 24.7758C6.10511 24.2139 6.18206 23.6647 6.27184 23.1028C6.69508 20.3315 7.63133 17.6368 9.01648 15.2103C9.10626 15.057 9.18321 14.9038 9.27299 14.7633L9.29864 14.725L9.60645 14.2269C9.96557 13.665 10.3503 13.1414 10.7479 12.6306C11.3635 11.8132 12.0048 11.0342 12.723 10.319L12.7615 10.2807C13.3387 9.70599 13.9286 9.16961 14.5699 8.65877C15.0573 8.26287 15.5959 7.90528 16.1218 7.54769C16.2885 7.43275 16.4424 7.29227 16.6091 7.1901H16.622L17.2761 6.78143C19.4692 5.44047 21.8291 4.49542 24.2916 3.94626C26.6515 3.42265 29.0883 3.29494 31.5636 3.52482C31.6662 3.53759 31.7688 3.53759 31.8843 3.55036H31.9612C33.667 3.74193 35.3471 4.13783 36.9888 4.69975C38.3483 5.15951 39.6821 5.7342 40.939 6.43661C40.9647 6.46215 41.0031 6.47492 41.0288 6.50047C41.0929 6.52601 41.1571 6.56432 41.234 6.6154C41.2468 6.6154 41.2468 6.6154 41.2596 6.6154C41.2853 6.62818 41.2981 6.64095 41.3238 6.65372C41.9779 7.02408 42.6063 7.45829 43.2091 7.90528C43.363 8.00744 43.5041 8.12238 43.658 8.23732C43.876 8.41612 44.1197 8.58214 44.3378 8.76093C44.6712 9.0419 45.0047 9.33563 45.3381 9.64213C46.377 10.6127 47.3261 11.66 48.1469 12.771C48.4419 13.1669 48.7241 13.5628 48.9934 13.9715C52.3921 19.1693 53.5593 25.3633 52.2511 31.4167C52.2382 31.455 52.2254 31.4806 52.2254 31.5061C52.0587 32.2213 51.9176 32.7832 51.7509 33.3068C51.7252 33.3834 51.6996 33.4984 51.6611 33.6133C51.6483 33.6516 51.6354 33.69 51.6226 33.7283C51.597 33.8177 51.5713 33.9071 51.5328 33.9965C51.4687 34.2008 51.3661 34.4818 51.2635 34.7372C51.1994 34.9415 51.0968 35.1714 50.9942 35.3885C50.93 35.5673 50.8531 35.7589 50.7761 35.9377C50.6992 36.1164 50.5966 36.3463 50.4811 36.5762C50.3657 36.8189 50.2118 37.1381 50.0323 37.4574C50.0066 37.5085 49.981 37.5596 49.9553 37.6107C49.8527 37.8022 49.7373 37.981 49.6347 38.1598C49.5705 38.262 49.5192 38.3641 49.4551 38.4663C49.2884 38.7728 49.0447 39.1304 48.7882 39.5135C48.6856 39.654 48.5958 39.7945 48.4932 39.935C48.4547 39.9988 48.4163 40.0499 48.3649 40.1138C48.1341 40.4458 47.8776 40.7779 47.6082 41.1099C47.5826 41.1482 47.5313 41.2121 47.4415 41.3015C47.4287 41.327 47.403 41.3526 47.3774 41.3781C47.2748 41.5058 47.1594 41.6335 47.0439 41.7612C46.8644 41.9656 46.6976 42.1699 46.5053 42.3615C46.2872 42.6041 46.0692 42.8085 45.8512 43.0256C45.7486 43.115 45.6588 43.2044 45.5562 43.3065C45.4151 43.4342 45.274 43.5747 45.1073 43.7152C44.8764 43.9451 44.5686 44.1877 44.2608 44.4304C44.2608 44.4431 44.2352 44.4559 44.2223 44.4687C43.9658 44.673 43.7093 44.8646 43.44 45.0562C43.145 45.2988 42.7602 45.567 42.337 45.848V45.8607Z" fill="white"/>
<path d="M39.1694 60.1387H11.2484C10.543 60.1387 9.96582 60.7134 9.96582 61.4158C9.96582 62.1182 10.543 62.6929 11.2484 62.6929H39.1694C39.8748 62.6929 40.4519 62.1182 40.4519 61.4158C40.4519 60.7134 39.8748 60.1387 39.1694 60.1387Z" fill="white"/>
<path d="M1.28254 62.6929H6.68206C7.38746 62.6929 7.9646 62.1182 7.9646 61.4158C7.9646 60.7134 7.38746 60.1387 6.68206 60.1387H1.28254C0.577145 60.1387 0 60.7134 0 61.4158C0 62.1182 0.577145 62.6929 1.28254 62.6929Z" fill="white"/>
<path d="M39.1689 70.0491H1.28254C0.577145 70.0491 0 70.6238 0 71.3262C0 72.0286 0.577145 72.6033 1.28254 72.6033H39.1689C39.8743 72.6033 40.4515 72.0286 40.4515 71.3262C40.4515 70.6238 39.8743 70.0491 39.1689 70.0491Z" fill="white"/>
</g>
<defs>
<clipPath id="clip0_1021_3830">
<rect width="100" height="86" fill="white"/>
</clipPath>
</defs>
</svg>
