<svg width="9" height="9" viewBox="0 0 9 9" fill="none" xmlns="http://www.w3.org/2000/svg">
<g clip-path="url(#clip0_806_2898)">
<path d="M7.68433 3.52437C7.68433 5.28401 6.25784 6.7105 4.4982 6.7105C2.73856 6.7105 1.31209 5.28401 1.31209 3.52437C1.31209 1.76473 2.73856 0.338257 4.4982 0.338257C6.25784 0.338257 7.68433 1.76473 7.68433 3.52437Z" stroke="white" stroke-width="0.5" stroke-linecap="round" stroke-linejoin="round"/>
<path d="M4.62857 1.79443L5.06745 2.6773C5.07727 2.69963 5.09283 2.71895 5.11256 2.7333C5.13228 2.74764 5.15546 2.75649 5.17973 2.75895L6.15445 2.90695C6.18232 2.91057 6.20858 2.92206 6.23016 2.94006C6.25173 2.95806 6.26774 2.98183 6.27631 3.0086C6.28487 3.03536 6.28564 3.06402 6.27852 3.0912C6.2714 3.11838 6.25669 3.14298 6.2361 3.16211L5.51654 3.84595C5.50581 3.86642 5.5002 3.88918 5.5002 3.91229C5.5002 3.9354 5.50581 3.95817 5.51654 3.97863L5.65433 4.94826C5.66021 4.97628 5.65783 5.00541 5.64748 5.03211C5.63713 5.05881 5.61926 5.08194 5.59604 5.09868C5.5728 5.11543 5.54522 5.12508 5.51661 5.12646C5.48801 5.12784 5.45962 5.12089 5.43489 5.10646L4.56734 4.64716C4.54488 4.63702 4.52052 4.63177 4.49589 4.63177C4.47125 4.63177 4.4469 4.63702 4.42444 4.64716L3.55689 5.10646C3.53216 5.12089 3.50376 5.12784 3.47516 5.12646C3.44656 5.12508 3.41897 5.11543 3.39574 5.09868C3.37251 5.08194 3.35464 5.05881 3.34429 5.03211C3.33394 5.00541 3.33156 4.97628 3.33745 4.94826L3.50075 3.97863C3.50777 3.95613 3.50912 3.93223 3.50467 3.90908C3.50021 3.88593 3.4901 3.86424 3.47523 3.84595L2.75567 3.15701C2.73659 3.13767 2.72319 3.11346 2.71695 3.08702C2.71071 3.06057 2.71188 3.03292 2.72031 3.0071C2.72874 2.98127 2.74412 2.95827 2.76476 2.9406C2.7854 2.92293 2.8105 2.91129 2.83732 2.90695L3.81205 2.76405C3.83632 2.7616 3.85949 2.75274 3.87922 2.7384C3.89894 2.72405 3.91451 2.70473 3.92432 2.6824L4.3632 1.79954C4.37495 1.77454 4.39345 1.75333 4.41662 1.73831C4.43978 1.72329 4.46669 1.71504 4.4943 1.7145C4.52191 1.71398 4.54912 1.72118 4.57284 1.73531C4.59657 1.74943 4.61588 1.76991 4.62857 1.79443Z" stroke="white" stroke-width="0.5" stroke-linecap="round" stroke-linejoin="round"/>
<path d="M1.73827 5.08716L0.321396 7.54125L1.85236 7.13104L2.26258 8.662L3.49193 6.53273" stroke="white" stroke-width="0.5" stroke-linecap="round" stroke-linejoin="round"/>
<path d="M7.26164 5.08716L8.6785 7.54125L7.14754 7.13104L6.73733 8.662L5.50798 6.53273" stroke="white" stroke-width="0.5" stroke-linecap="round" stroke-linejoin="round"/>
</g>
<defs>
<clipPath id="clip0_806_2898">
<rect width="9" height="9" fill="white"/>
</clipPath>
</defs>
</svg>
