<svg width="7" height="9" viewBox="0 0 7 9" fill="none" xmlns="http://www.w3.org/2000/svg">
<g clip-path="url(#clip0_586_574)">
<path d="M2.5395 0.000244141C2.14882 0.918348 1.53349 1.71925 0.761894 2.33457C1.53349 2.9499 2.14882 3.75079 2.5395 4.6689C2.93018 3.75079 3.54551 2.9499 4.3171 2.33457C3.54551 1.71925 2.93018 0.918348 2.5395 0.000244141Z" fill="white"/>
<path d="M5.02038 3.44812C4.6297 4.36622 4.01437 5.16712 3.24277 5.78245C4.01437 6.39777 4.6297 7.19867 5.02038 8.11677C5.41106 7.19867 6.02639 6.39777 6.79798 5.78245C6.03615 5.15736 5.42083 4.35646 5.02038 3.44812Z" fill="white"/>
<path d="M1.17208 5.03015C0.908365 5.63571 0.507916 6.16313 2.86102e-05 6.56358C0.507916 6.9738 0.908365 7.49145 1.17208 8.09701C1.43579 7.49145 1.83624 6.96403 2.34412 6.56358C1.83624 6.16313 1.43579 5.63571 1.17208 5.03015Z" fill="white"/>
</g>
<defs>
<clipPath id="clip0_586_574">
<rect width="6.79787" height="8.11643" fill="white"/>
</clipPath>
</defs>
</svg>
