<svg width="8" height="9" viewBox="0 0 8 9" fill="none" xmlns="http://www.w3.org/2000/svg">
<g clip-path="url(#clip0_586_632)">
<path d="M3.19908 0.314331C2.8084 1.23243 2.19308 2.03333 1.42148 2.64866C2.19308 3.26398 2.8084 4.06488 3.19908 4.98299C3.58977 4.06488 4.20509 3.26398 4.97669 2.64866C4.20509 2.03333 3.58977 1.23243 3.19908 0.314331Z" fill="white"/>
<path d="M5.67995 3.76221C5.28927 4.68031 4.67394 5.48121 3.90234 6.09653C4.67394 6.71186 5.28927 7.51276 5.67995 8.43086C6.07063 7.51276 6.68595 6.71186 7.45755 6.09653C6.69572 5.47144 6.0804 4.67054 5.67995 3.76221Z" fill="white"/>
<path d="M1.83165 5.34424C1.56794 5.9498 1.16749 6.47722 0.659607 6.87767C1.16749 7.28788 1.56794 7.80554 1.83165 8.41109C2.09536 7.80554 2.49581 7.27812 3.0037 6.87767C2.49581 6.47722 2.09536 5.9498 1.83165 5.34424Z" fill="white"/>
</g>
<defs>
<clipPath id="clip0_586_632">
<rect width="6.79787" height="8.11643" fill="white" transform="translate(0.659576 0.314087)"/>
</clipPath>
</defs>
</svg>
