<svg width="16" height="16" viewBox="0 0 18 18" fill="none" xmlns="http://www.w3.org/2000/svg">
<path d="M9.65 0.796916C10.137 0.927916 10.558 1.25492 11.07 1.65092L11.367 1.88092C11.61 2.06792 11.668 2.11092 11.726 2.14192C11.7883 2.17579 11.854 2.20294 11.922 2.22292C11.985 2.24192 12.056 2.25292 12.36 2.29292L12.733 2.33992C13.375 2.42192 13.903 2.48892 14.34 2.73992C14.723 2.95992 15.04 3.27692 15.26 3.65992C15.511 4.09592 15.578 4.62492 15.66 5.26692L15.708 5.63992C15.747 5.94392 15.758 6.01492 15.777 6.07792C15.797 6.14592 15.8237 6.21125 15.857 6.27392C15.889 6.33192 15.932 6.38992 16.119 6.63292L16.349 6.92992C16.745 7.44192 17.072 7.86292 17.203 8.34992C17.3176 8.77567 17.3176 9.22416 17.203 9.64992C17.072 10.1369 16.745 10.5579 16.349 11.0699L16.119 11.3669C15.932 11.6099 15.889 11.6679 15.858 11.7259C15.824 11.7886 15.797 11.8539 15.777 11.9219C15.758 11.9849 15.747 12.0559 15.707 12.3599L15.66 12.7329C15.578 13.3749 15.511 13.9029 15.26 14.3399C15.0399 14.7224 14.7225 15.0398 14.34 15.2599C13.904 15.5109 13.375 15.5779 12.733 15.6599L12.36 15.7079C12.056 15.7469 11.985 15.7579 11.922 15.7769C11.854 15.7969 11.7887 15.8236 11.726 15.8569C11.668 15.8889 11.61 15.9319 11.367 16.1189L11.07 16.3489C10.558 16.7449 10.137 17.0719 9.65 17.2029C9.22425 17.3176 8.77575 17.3176 8.35 17.2029C7.863 17.0719 7.442 16.7449 6.93 16.3489L6.633 16.1189C6.39 15.9319 6.332 15.8889 6.274 15.8579C6.21172 15.824 6.14602 15.7969 6.078 15.7769C6.015 15.7579 5.944 15.7469 5.64 15.7069L5.267 15.6599C4.625 15.5779 4.097 15.5109 3.66 15.2599C3.27751 15.0398 2.96009 14.7224 2.74 14.3399C2.489 13.9039 2.422 13.3749 2.34 12.7329L2.292 12.3599C2.253 12.0559 2.242 11.9849 2.223 11.9219C2.20334 11.8539 2.17653 11.7882 2.143 11.7259C2.111 11.6679 2.068 11.6099 1.881 11.3669L1.651 11.0699C1.255 10.5579 0.928 10.1369 0.797 9.64992C0.682362 9.22416 0.682362 8.77567 0.797 8.34992C0.928 7.86292 1.255 7.44192 1.651 6.92992L1.881 6.63292C2.068 6.38992 2.111 6.33192 2.142 6.27392C2.17587 6.21164 2.20302 6.14594 2.223 6.07792C2.242 6.01492 2.253 5.94392 2.293 5.63992L2.34 5.26692C2.422 4.62492 2.489 4.09692 2.74 3.65992C2.96009 3.27743 3.27751 2.96001 3.66 2.73992C4.096 2.48892 4.625 2.42192 5.267 2.33992L5.64 2.29192C5.944 2.25292 6.015 2.24192 6.078 2.22292C6.14598 2.20326 6.21168 2.17644 6.274 2.14292C6.332 2.11092 6.39 2.06792 6.633 1.88092L6.93 1.65092C7.442 1.25492 7.863 0.927916 8.35 0.796916C8.77575 0.682278 9.22425 0.682278 9.65 0.796916ZM12.707 6.29292C12.5195 6.10545 12.2652 6.00013 12 6.00013C11.7348 6.00013 11.4805 6.10545 11.293 6.29292L8 9.58592L6.707 8.29292C6.5184 8.11076 6.2658 8.00996 6.0036 8.01224C5.7414 8.01452 5.49059 8.11969 5.30518 8.3051C5.11977 8.49051 5.0146 8.74132 5.01233 9.00352C5.01005 9.26571 5.11084 9.51831 5.293 9.70692L7.293 11.7069C7.48053 11.8944 7.73484 11.9997 8 11.9997C8.26516 11.9997 8.51947 11.8944 8.707 11.7069L12.707 7.70692C12.8945 7.51939 12.9998 7.26508 12.9998 6.99992C12.9998 6.73475 12.8945 6.48044 12.707 6.29292Z" fill="#2FD2FF"/>
</svg>
