<svg width="14" height="14" viewBox="0 0 14 14" fill="none" xmlns="http://www.w3.org/2000/svg">
<path d="M12.5 2.5H1.5C0.947715 2.5 0.5 2.94772 0.5 3.5V10.5C0.5 11.0523 0.947715 11.5 1.5 11.5H12.5C13.0523 11.5 13.5 11.0523 13.5 10.5V3.5C13.5 2.94772 13.0523 2.5 12.5 2.5Z" stroke="black" stroke-linecap="round" stroke-linejoin="round"/>
<path d="M7 9C8.10457 9 9 8.10457 9 7C9 5.89543 8.10457 5 7 5C5.89543 5 5 5.89543 5 7C5 8.10457 5.89543 9 7 9Z" stroke="black" stroke-linecap="round" stroke-linejoin="round"/>
<path d="M2.7749 7.25C2.63683 7.25 2.5249 7.13807 2.5249 7C2.5249 6.86193 2.63683 6.75 2.7749 6.75" stroke="black" stroke-linecap="round" stroke-linejoin="round"/>
<path d="M2.7749 7.25C2.91297 7.25 3.0249 7.13807 3.0249 7C3.0249 6.86193 2.91297 6.75 2.7749 6.75" stroke="black" stroke-linecap="round" stroke-linejoin="round"/>
<path d="M11.2251 7.25C11.087 7.25 10.9751 7.13807 10.9751 7C10.9751 6.86193 11.087 6.75 11.2251 6.75" stroke="black" stroke-linecap="round" stroke-linejoin="round"/>
<path d="M11.2251 7.25C11.3632 7.25 11.4751 7.13807 11.4751 7C11.4751 6.86193 11.3632 6.75 11.2251 6.75" stroke="black" stroke-linecap="round" stroke-linejoin="round"/>
</svg>
