<svg width="21" height="20" viewBox="0 0 21 20" fill="none" xmlns="http://www.w3.org/2000/svg">
<g clip-path="url(#clip0_658_1989)">
<path d="M10.7595 5.35352L16.2704 14.8986" stroke="black" stroke-linecap="round" stroke-linejoin="round"/>
<path d="M15.9819 14.3968L2.39689 17.5513L1.52679 16.0441L11.0511 5.85645" fill="#C0FFB9"/>
<path d="M15.9819 14.3968L2.39689 17.5513L1.52679 16.0441L11.0511 5.85645" stroke="black" stroke-linecap="round" stroke-linejoin="round"/>
<path d="M5.35212 16.8645L6.10016 18.1601C6.37153 18.6253 6.81654 18.9635 7.33732 19.1005C7.85807 19.2374 8.41193 19.162 8.87703 18.8905C9.34214 18.6193 9.6804 18.1743 9.81739 17.6534C9.95437 17.1327 9.87889 16.5788 9.60752 16.1137L9.48772 15.9062" stroke="black" stroke-linecap="round" stroke-linejoin="round"/>
<path d="M11.1342 2.62468V0.833984" stroke="black" stroke-linecap="round" stroke-linejoin="round"/>
<path d="M17.995 9.48535H19.7857" stroke="black" stroke-linecap="round" stroke-linejoin="round"/>
<path d="M2.4839 9.48535H4.27459" stroke="black" stroke-linecap="round" stroke-linejoin="round"/>
<path d="M5.01591 3.36816L6.28213 4.63438" stroke="black" stroke-linecap="round" stroke-linejoin="round"/>
<path d="M15.9857 4.63438L17.2519 3.36816" stroke="black" stroke-linecap="round" stroke-linejoin="round"/>
</g>
<defs>
<clipPath id="clip0_658_1989">
<rect width="20" height="20" fill="white" transform="translate(0.5)"/>
</clipPath>
</defs>
</svg>
