<svg width="24" height="24" viewBox="0 0 24 24" fill="none" xmlns="http://www.w3.org/2000/svg">
<path d="M13 12C13.0047 10.7876 13.3242 9.59726 13.9272 8.54548C14.5302 7.4937 15.3961 6.61657 16.44 6C15.6659 5.67952 14.8378 5.50981 14 5.5C12.2761 5.5 10.6228 6.18482 9.40381 7.40381C8.18482 8.62279 7.5 10.2761 7.5 12C7.5 13.7239 8.18482 15.3772 9.40381 16.5962C10.6228 17.8152 12.2761 18.5 14 18.5C14.8479 18.494 15.6866 18.3242 16.47 18C15.4205 17.3872 14.5487 16.5117 13.9403 15.4596C13.3318 14.4076 13.0078 13.2153 13 12Z" stroke="black" stroke-linecap="round" stroke-linejoin="round"/>
</svg>
