<svg width="20" height="20" viewBox="0 0 20 20" fill="none" xmlns="http://www.w3.org/2000/svg">
<path d="M15 0.713867H5C4.21103 0.713867 3.57143 1.35346 3.57143 2.14244V17.8567C3.57143 18.6457 4.21103 19.2853 5 19.2853H15C15.789 19.2853 16.4286 18.6457 16.4286 17.8567V2.14244C16.4286 1.35346 15.789 0.713867 15 0.713867Z" fill="#C0FFB9" stroke="black" stroke-linecap="round" stroke-linejoin="round"/>
<path d="M9.99998 4.99944C9.80274 4.99944 9.64284 4.83954 9.64284 4.6423C9.64284 4.44506 9.80274 4.28516 9.99998 4.28516" fill="white"/>
<path d="M9.99998 4.99944C9.80274 4.99944 9.64284 4.83954 9.64284 4.6423C9.64284 4.44506 9.80274 4.28516 9.99998 4.28516" stroke="black" stroke-linecap="round" stroke-linejoin="round"/>
<path d="M9.99998 4.99944C10.1972 4.99944 10.3571 4.83954 10.3571 4.6423C10.3571 4.44506 10.1972 4.28516 9.99998 4.28516" fill="white"/>
<path d="M9.99998 4.99944C10.1972 4.99944 10.3571 4.83954 10.3571 4.6423C10.3571 4.44506 10.1972 4.28516 9.99998 4.28516" stroke="black" stroke-linecap="round" stroke-linejoin="round"/>
</svg>
