<svg width="24" height="24" viewBox="0 0 24 24" fill="none" xmlns="http://www.w3.org/2000/svg">
<g clip-path="url(#clip0_658_2013)">
<circle cx="15" cy="12" r="8" fill="#C0FFB9"/>
<path d="M15 21C13.7613 21 12.5947 20.7633 11.5 20.29C10.4053 19.816 9.452 19.1727 8.64 18.36C7.828 17.5473 7.18467 16.594 6.71 15.5C6.23533 14.406 5.99867 13.2393 6 12C6 10.7573 6.23667 9.58967 6.71 8.497C7.184 7.40367 7.82733 6.45133 8.64 5.64C9.45267 4.82867 10.406 4.18533 11.5 3.71C12.5947 3.23667 13.7613 3 15 3C16.2427 3 17.4103 3.23667 18.503 3.71C19.5963 4.184 20.549 4.82733 21.361 5.64C22.173 6.45267 22.816 7.405 23.29 8.497C23.7633 9.59033 24 10.758 24 12C24 13.2387 23.7633 14.4053 23.29 15.5C22.816 16.5947 22.1727 17.548 21.36 18.36C20.5473 19.172 19.595 19.8153 18.503 20.29C17.411 20.7647 16.2433 21.0013 15 21ZM15 20.008C15.5867 19.254 16.0707 18.5137 16.452 17.787C16.8327 17.0603 17.1423 16.247 17.381 15.347H12.619C12.8837 16.2977 13.1997 17.1363 13.567 17.863C13.935 18.5897 14.4127 19.3047 15 20.008ZM13.727 19.858C13.2603 19.308 12.8343 18.628 12.449 17.818C12.0637 17.0087 11.777 16.1847 11.589 15.346H7.754C8.32733 16.5893 9.13967 17.6093 10.191 18.406C11.243 19.202 12.4217 19.686 13.727 19.858ZM16.273 19.858C17.5783 19.686 18.757 19.202 19.809 18.406C20.8603 17.6093 21.6727 16.5893 22.246 15.346H18.412C18.1587 16.1973 17.8397 17.0277 17.455 17.837C17.0697 18.647 16.6757 19.3213 16.273 19.858ZM7.346 14.347H11.381C11.305 13.9363 11.2517 13.5363 11.221 13.147C11.189 12.7583 11.173 12.376 11.173 12C11.173 11.624 11.1887 11.2417 11.22 10.853C11.2513 10.4643 11.3047 10.0643 11.38 9.653H7.347C7.23833 9.99967 7.15333 10.3773 7.092 10.786C7.03067 11.194 7 11.5987 7 12C7 12.4013 7.03033 12.8063 7.091 13.215C7.15167 13.6237 7.23667 14.0007 7.346 14.346M12.381 14.346H17.619C17.695 13.936 17.7483 13.5427 17.779 13.166C17.811 12.79 17.827 12.4013 17.827 12C17.827 11.5987 17.8113 11.21 17.78 10.834C17.7487 10.458 17.6953 10.0647 17.62 9.654H12.38C12.3047 10.064 12.2513 10.4573 12.22 10.834C12.1887 11.21 12.173 11.5987 12.173 12C12.173 12.4013 12.1887 12.79 12.22 13.166C12.2513 13.542 12.3057 13.9353 12.381 14.346ZM18.62 14.346H22.654C22.7627 14 22.8477 13.623 22.909 13.215C22.9697 12.8063 23 12.4013 23 12C23 11.5987 22.9697 11.1937 22.909 10.785C22.8483 10.3763 22.7633 9.99933 22.654 9.654H18.619C18.695 10.064 18.7483 10.4637 18.779 10.853C18.811 11.2423 18.827 11.6247 18.827 12C18.827 12.3753 18.8113 12.7577 18.78 13.147C18.7487 13.5363 18.6953 13.9363 18.62 14.347M18.412 8.654H22.246C21.66 7.38467 20.8573 6.36467 19.838 5.594C18.8187 4.82333 17.6303 4.333 16.273 4.123C16.7397 4.737 17.1593 5.43933 17.532 6.23C17.9047 7.02 18.198 7.828 18.412 8.654ZM12.619 8.654H17.381C17.117 7.71533 16.7913 6.86667 16.404 6.108C16.0167 5.34933 15.5487 4.644 15 3.992C14.4513 4.64333 13.9833 5.34867 13.596 6.108C13.2087 6.86733 12.8823 7.716 12.619 8.654ZM7.755 8.654H11.589C11.803 7.82867 12.0963 7.02067 12.469 6.23C12.8417 5.43933 13.2613 4.737 13.728 4.123C12.3587 4.33367 11.1673 4.827 10.154 5.603C9.14067 6.38033 8.34067 7.397 7.754 8.653" fill="black"/>
</g>
<defs>
<clipPath id="clip0_658_2013">
<rect width="24" height="24" fill="white"/>
</clipPath>
</defs>
</svg>
