<svg width="25" height="24" viewBox="0 0 25 24" fill="none" xmlns="http://www.w3.org/2000/svg">
<g clip-path="url(#clip0_658_2018)">
<path d="M13 13.9979C14.1035 13.9979 14.998 13.1034 14.998 11.9999C14.998 10.8965 14.1035 10.002 13 10.002C11.8966 10.002 11.0021 10.8965 11.0021 11.9999C11.0021 13.1034 11.8966 13.9979 13 13.9979Z" stroke="black" stroke-linecap="round" stroke-linejoin="round"/>
<path d="M13 5.5V6.5" stroke="black" stroke-linecap="round" stroke-linejoin="round"/>
<path d="M13 17.5V18.5" stroke="black" stroke-linecap="round" stroke-linejoin="round"/>
<path d="M19.5 12H18.5" stroke="black" stroke-linecap="round" stroke-linejoin="round"/>
<path d="M7.5 12H6.5" stroke="black" stroke-linecap="round" stroke-linejoin="round"/>
<path d="M17.6 7.39941L16.89 8.10941" stroke="black" stroke-linecap="round" stroke-linejoin="round"/>
<path d="M9.11002 15.8896L8.40002 16.5996" stroke="black" stroke-linecap="round" stroke-linejoin="round"/>
<path d="M17.6 16.5996L16.89 15.8896" stroke="black" stroke-linecap="round" stroke-linejoin="round"/>
<path d="M9.11002 8.10941L8.40002 7.39941" stroke="black" stroke-linecap="round" stroke-linejoin="round"/>
</g>
<defs>
<clipPath id="clip0_658_2018">
<rect width="14" height="14" fill="white" transform="translate(6 5)"/>
</clipPath>
</defs>
</svg>
