<svg width="15" height="15" viewBox="0 0 15 15" fill="none" xmlns="http://www.w3.org/2000/svg">
<g clip-path="url(#clip0_658_2053)">
<path d="M5.5 12.7399L1 13.9999L2.26 9.4999L10.5 1.2999C10.5931 1.20465 10.7044 1.12897 10.8271 1.07731C10.9499 1.02564 11.0818 0.999023 11.215 0.999023C11.3482 0.999023 11.4801 1.02564 11.6029 1.07731C11.7256 1.12897 11.8369 1.20465 11.93 1.2999L13.7 3.0799C13.7937 3.17286 13.8681 3.28347 13.9189 3.40532C13.9697 3.52718 13.9958 3.65789 13.9958 3.7899C13.9958 3.92191 13.9697 4.05262 13.9189 4.17448C13.8681 4.29634 13.7937 4.40694 13.7 4.4999L5.5 12.7399Z" stroke="black" stroke-linecap="round" stroke-linejoin="round"/>
</g>
<defs>
<clipPath id="clip0_658_2053">
<rect width="14" height="14" fill="white" transform="translate(0.5 0.5)"/>
</clipPath>
</defs>
</svg>
