<svg width="20" height="20" viewBox="0 0 20 20" fill="none" xmlns="http://www.w3.org/2000/svg">
<path d="M8.15715 6.15776C5.41429 4.28633 2.85715 5.7149 0.714294 7.9149L5.45715 10.772" fill="#C0FFB9"/>
<path d="M8.15715 6.15776C5.41429 4.28633 2.85715 5.7149 0.714294 7.9149L5.45715 10.772" stroke="black" stroke-linecap="round" stroke-linejoin="round"/>
<path d="M13.8429 11.8438C15.7143 14.5865 14.2857 17.1437 12.0858 19.2866L9.22861 14.5437" fill="#C0FFB9"/>
<path d="M13.8429 11.8438C15.7143 14.5866 14.2857 17.1437 12.0858 19.2866L9.22861 14.5437" stroke="black" stroke-linecap="round" stroke-linejoin="round"/>
<path d="M5.45716 10.7576L9.24288 14.5433C12.2714 12.729 15.7143 10.9719 17.2857 9.34334C20.6857 5.94334 18.7143 1.2862 18.7143 1.2862C18.7143 1.2862 14.0572 -0.685229 10.6572 2.71476C9.02859 4.28619 7.25716 7.74335 5.45716 10.7576Z" fill="#C0FFB9" stroke="black" stroke-linecap="round" stroke-linejoin="round"/>
<path d="M7.54291 7.17188L12.8286 12.4576" stroke="black" stroke-linecap="round" stroke-linejoin="round"/>
<path d="M15 5.7147C15.3944 5.7147 15.7143 5.3949 15.7143 5.00042C15.7143 4.60593 15.3944 4.28613 15 4.28613C14.6056 4.28613 14.2857 4.60593 14.2857 5.00042C14.2857 5.3949 14.6056 5.7147 15 5.7147Z" stroke="black" stroke-linecap="round" stroke-linejoin="round"/>
<path d="M5.25715 17.7721C4.42858 18.5721 0.714294 19.2863 0.714294 19.2863C0.714294 19.2863 1.42858 15.5721 2.22858 14.7435C2.42475 14.5331 2.66132 14.3642 2.92418 14.247C3.18704 14.1299 3.47079 14.0669 3.75851 14.0619C4.04624 14.0568 4.33204 14.1097 4.59887 14.2175C4.86568 14.3252 5.10807 14.4856 5.31155 14.6892C5.51502 14.8926 5.67544 15.1351 5.78322 15.4019C5.891 15.6686 5.94392 15.9545 5.93884 16.2422C5.93377 16.5299 5.87079 16.8136 5.75367 17.0765C5.63655 17.3393 5.46768 17.5759 5.25715 17.7721Z" fill="#C0FFB9" stroke="black" stroke-linecap="round" stroke-linejoin="round"/>
</svg>
