<svg width="18" height="19" viewBox="0 0 18 19" fill="none" xmlns="http://www.w3.org/2000/svg">
<g clip-path="url(#clip0_706_3468)">
<path d="M0.704666 4.46582L3.52606 5.98422L6.04446 5.54819C6.8946 5.401 7.76583 5.64436 8.41663 6.2108" stroke="black" stroke-width="1.5" stroke-linecap="round" stroke-linejoin="round"/>
<path d="M14.5057 12.4346L10.5166 15.2676C9.63979 15.8904 8.46799 15.9015 7.57933 15.2957L0.704651 10.6094" stroke="black" stroke-width="1.5" stroke-linecap="round" stroke-linejoin="round"/>
<path d="M17.2315 10.579L14.409 12.5077L10.0296 8.9716L8.41876 10.144C7.76376 10.6208 6.84873 10.4923 6.35028 9.85367C5.85298 9.21649 5.94892 8.30006 6.5674 7.77968L8.24472 6.36842C9.04863 5.69202 10.0937 5.37281 11.1383 5.48459L13.7525 5.76429L17.2315 3.88379" stroke="black" stroke-width="1.5" stroke-linecap="round" stroke-linejoin="round"/>
<path d="M10.0302 8.98133C11.084 9.92019 12.5784 9.44122 13.1341 8.6748" stroke="black" stroke-width="1.5" stroke-linecap="round" stroke-linejoin="round"/>
</g>
<defs>
<clipPath id="clip0_706_3468">
<rect width="18" height="18" fill="white" transform="translate(0 0.5)"/>
</clipPath>
</defs>
</svg>
