<svg width="25" height="24" viewBox="0 0 25 24" fill="none" xmlns="http://www.w3.org/2000/svg">
<path d="M12.5 21C11.2613 21 10.0947 20.7633 9.00001 20.29C7.90534 19.816 6.95201 19.1727 6.14001 18.36C5.32801 17.5473 4.68467 16.594 4.21001 15.5C3.73534 14.406 3.49867 13.2393 3.50001 12C3.50001 10.7573 3.73667 9.58967 4.21001 8.497C4.68401 7.40367 5.32734 6.45133 6.14001 5.64C6.95267 4.82867 7.90601 4.18533 9.00001 3.71C10.0947 3.23667 11.2613 3 12.5 3C13.7427 3 14.9103 3.23667 16.003 3.71C17.0963 4.184 18.049 4.82733 18.861 5.64C19.673 6.45267 20.316 7.405 20.79 8.497C21.2633 9.59033 21.5 10.758 21.5 12C21.5 13.2387 21.2633 14.4053 20.79 15.5C20.316 16.5947 19.6727 17.548 18.86 18.36C18.0473 19.172 17.095 19.8153 16.003 20.29C14.911 20.7647 13.7433 21.0013 12.5 21ZM12.5 20.008C13.0867 19.254 13.5707 18.5137 13.952 17.787C14.3327 17.0603 14.6423 16.247 14.881 15.347H10.119C10.3837 16.2977 10.6997 17.1363 11.067 17.863C11.435 18.5897 11.9127 19.3047 12.5 20.008ZM11.227 19.858C10.7603 19.308 10.3343 18.628 9.94901 17.818C9.56367 17.0087 9.27701 16.1847 9.08901 15.346H5.25401C5.82734 16.5893 6.63967 17.6093 7.69101 18.406C8.74301 19.202 9.92167 19.686 11.227 19.858ZM13.773 19.858C15.0783 19.686 16.257 19.202 17.309 18.406C18.3603 17.6093 19.1727 16.5893 19.746 15.346H15.912C15.6587 16.1973 15.3397 17.0277 14.955 17.837C14.5697 18.647 14.1757 19.3213 13.773 19.858ZM4.84601 14.347H8.88101C8.80501 13.9363 8.75167 13.5363 8.72101 13.147C8.68901 12.7583 8.67301 12.376 8.67301 12C8.67301 11.624 8.68867 11.2417 8.72001 10.853C8.75134 10.4643 8.80467 10.0643 8.88001 9.653H4.84701C4.73834 9.99967 4.65334 10.3773 4.59201 10.786C4.53067 11.194 4.50001 11.5987 4.50001 12C4.50001 12.4013 4.53034 12.8063 4.59101 13.215C4.65167 13.6237 4.73667 14.0007 4.84601 14.346M9.88101 14.346H15.119C15.195 13.936 15.2483 13.5427 15.279 13.166C15.311 12.79 15.327 12.4013 15.327 12C15.327 11.5987 15.3113 11.21 15.28 10.834C15.2487 10.458 15.1953 10.0647 15.12 9.654H9.88001C9.80467 10.064 9.75134 10.4573 9.72001 10.834C9.68867 11.21 9.67301 11.5987 9.67301 12C9.67301 12.4013 9.68867 12.79 9.72001 13.166C9.75134 13.542 9.80567 13.9353 9.88101 14.346ZM16.12 14.346H20.154C20.2627 14 20.3477 13.623 20.409 13.215C20.4697 12.8063 20.5 12.4013 20.5 12C20.5 11.5987 20.4697 11.1937 20.409 10.785C20.3483 10.3763 20.2633 9.99933 20.154 9.654H16.119C16.195 10.064 16.2483 10.4637 16.279 10.853C16.311 11.2423 16.327 11.6247 16.327 12C16.327 12.3753 16.3113 12.7577 16.28 13.147C16.2487 13.5363 16.1953 13.9363 16.12 14.347M15.912 8.654H19.746C19.16 7.38467 18.3573 6.36467 17.338 5.594C16.3187 4.82333 15.1303 4.333 13.773 4.123C14.2397 4.737 14.6593 5.43933 15.032 6.23C15.4047 7.02 15.698 7.828 15.912 8.654ZM10.119 8.654H14.881C14.617 7.71533 14.2913 6.86667 13.904 6.108C13.5167 5.34933 13.0487 4.644 12.5 3.992C11.9513 4.64333 11.4833 5.34867 11.096 6.108C10.7087 6.86733 10.3823 7.716 10.119 8.654ZM5.25501 8.654H9.08901C9.30301 7.82867 9.59634 7.02067 9.96901 6.23C10.3417 5.43933 10.7613 4.737 11.228 4.123C9.85867 4.33367 8.66734 4.827 7.65401 5.603C6.64067 6.38033 5.84067 7.397 5.25401 8.653" fill="white"/>
</svg>
